<mxfile host="app.diagrams.net" agent="Mozilla/5.0 (Windows NT 10.0; Win64; x64) AppleWebKit/537.36 (KHTML, like Gecko) Chrome/131.0.0.0 Safari/537.36" version="26.0.2">
  <diagram name="Page-1" id="gk4yoihBY5Q8PNhc7fTZ">
    <mxGraphModel dx="1114" dy="566" grid="1" gridSize="10" guides="1" tooltips="1" connect="1" arrows="1" fold="1" page="1" pageScale="1" pageWidth="850" pageHeight="1100" math="0" shadow="0">
      <root>
        <mxCell id="0" />
        <mxCell id="1" parent="0" />
        <mxCell id="HAEtFW_etspQiGrtx6lJ-13" value="" style="whiteSpace=wrap;html=1;aspect=fixed;fillColor=default;" vertex="1" parent="1">
          <mxGeometry x="140" y="40" width="460" height="460" as="geometry" />
        </mxCell>
        <mxCell id="HAEtFW_etspQiGrtx6lJ-2" value="Order Coffee" style="ellipse;whiteSpace=wrap;html=1;" vertex="1" parent="1">
          <mxGeometry x="290" y="60" width="120" height="80" as="geometry" />
        </mxCell>
        <mxCell id="HAEtFW_etspQiGrtx6lJ-7" value="Prepare Coffee" style="ellipse;whiteSpace=wrap;html=1;" vertex="1" parent="1">
          <mxGeometry x="290" y="150" width="120" height="80" as="geometry" />
        </mxCell>
        <mxCell id="HAEtFW_etspQiGrtx6lJ-8" value="Manage Element" style="ellipse;whiteSpace=wrap;html=1;" vertex="1" parent="1">
          <mxGeometry x="290" y="330" width="120" height="80" as="geometry" />
        </mxCell>
        <mxCell id="HAEtFW_etspQiGrtx6lJ-9" value="Manage Inventory" style="ellipse;whiteSpace=wrap;html=1;" vertex="1" parent="1">
          <mxGeometry x="290" y="420" width="120" height="80" as="geometry" />
        </mxCell>
        <mxCell id="HAEtFW_etspQiGrtx6lJ-10" value="Pay Bill" style="ellipse;whiteSpace=wrap;html=1;" vertex="1" parent="1">
          <mxGeometry x="290" y="240" width="120" height="80" as="geometry" />
        </mxCell>
        <mxCell id="HAEtFW_etspQiGrtx6lJ-14" value="Actor" style="shape=umlActor;verticalLabelPosition=bottom;verticalAlign=top;html=1;outlineConnect=0;points=[[0,0.3333333333333333,0,0,0],[0,1,0,0,0],[0.25,0.1,0,0,0],[0.5,0,0,0,0],[0.5,0.5,0,0,0],[0.75,0.1,0,0,0],[1,0.3333333333333333,0,0,0],[1,1,0,0,0]];" vertex="1" parent="1">
          <mxGeometry x="40" y="230" width="50" height="80" as="geometry" />
        </mxCell>
        <mxCell id="HAEtFW_etspQiGrtx6lJ-15" value="Actor" style="shape=umlActor;verticalLabelPosition=bottom;verticalAlign=top;html=1;outlineConnect=0;" vertex="1" parent="1">
          <mxGeometry x="680" y="230" width="50" height="90" as="geometry" />
        </mxCell>
        <mxCell id="HAEtFW_etspQiGrtx6lJ-17" value="" style="endArrow=none;html=1;rounded=0;" edge="1" parent="1" target="HAEtFW_etspQiGrtx6lJ-2">
          <mxGeometry width="50" height="50" relative="1" as="geometry">
            <mxPoint x="90" y="250" as="sourcePoint" />
            <mxPoint x="140" y="200" as="targetPoint" />
          </mxGeometry>
        </mxCell>
        <mxCell id="HAEtFW_etspQiGrtx6lJ-18" value="" style="endArrow=none;html=1;rounded=0;" edge="1" parent="1" target="HAEtFW_etspQiGrtx6lJ-10">
          <mxGeometry width="50" height="50" relative="1" as="geometry">
            <mxPoint x="100" y="295" as="sourcePoint" />
            <mxPoint x="150" y="245" as="targetPoint" />
          </mxGeometry>
        </mxCell>
        <mxCell id="HAEtFW_etspQiGrtx6lJ-19" value="" style="endArrow=none;html=1;rounded=0;" edge="1" parent="1" source="HAEtFW_etspQiGrtx6lJ-8">
          <mxGeometry width="50" height="50" relative="1" as="geometry">
            <mxPoint x="620" y="330" as="sourcePoint" />
            <mxPoint x="660" y="280" as="targetPoint" />
          </mxGeometry>
        </mxCell>
        <mxCell id="HAEtFW_etspQiGrtx6lJ-20" value="" style="endArrow=none;html=1;rounded=0;" edge="1" parent="1" target="HAEtFW_etspQiGrtx6lJ-7">
          <mxGeometry width="50" height="50" relative="1" as="geometry">
            <mxPoint x="660" y="260" as="sourcePoint" />
            <mxPoint x="450" y="270" as="targetPoint" />
            <Array as="points" />
          </mxGeometry>
        </mxCell>
        <mxCell id="HAEtFW_etspQiGrtx6lJ-21" value="" style="endArrow=none;html=1;rounded=0;" edge="1" parent="1" source="HAEtFW_etspQiGrtx6lJ-9">
          <mxGeometry width="50" height="50" relative="1" as="geometry">
            <mxPoint x="400" y="320" as="sourcePoint" />
            <mxPoint x="660" y="310" as="targetPoint" />
          </mxGeometry>
        </mxCell>
      </root>
    </mxGraphModel>
  </diagram>
</mxfile>
